<svg width="221" height="326" viewBox="0 0 221 326" fill="none" xmlns="http://www.w3.org/2000/svg">
<path d="M154.95 319.245C157.189 322.331 159.753 325.104 163.73 326H164.401C169.072 324.794 171.87 321.361 174.29 317.575C178.794 310.527 181.377 302.682 183.462 294.674C184.481 290.767 185.349 286.821 186.218 282.874C186.481 281.681 186.744 280.487 187.011 279.294C187.146 278.685 187.149 278.039 187.153 277.406C187.153 277.318 187.154 277.231 187.155 277.145C187.172 274.705 187.189 272.265 187.206 269.825C187.344 250.246 187.481 230.664 187.577 211.083C187.584 209.753 188.009 209.027 189.162 208.344C199.776 202.07 210.388 195.794 221 189.517V125.585C212.788 127.32 204.576 129.054 196.363 130.788C194.45 131.192 192.531 131.561 190.587 131.935C189.627 132.12 188.661 132.306 187.687 132.498C187.661 132.331 187.638 132.191 187.617 132.068C187.575 131.816 187.545 131.636 187.527 131.454C187.302 129.192 187.077 126.93 186.851 124.668C186.263 118.763 185.675 112.859 185.1 106.953C184.516 100.936 183.934 94.919 183.353 88.9016C182.19 76.8687 181.026 64.8358 179.842 52.8058C179.725 51.6194 180.057 50.9063 181.022 50.1731C193.964 40.342 206.873 30.4676 219.764 20.5732C220.274 20.1833 220.884 19.4868 220.884 18.9303C220.896 15.3015 220.857 11.6727 220.818 8.04386C220.795 5.90398 220.772 3.7641 220.76 1.62422C220.75 0.0745947 220.156 -0.172047 218.685 0.171205C201.226 4.24028 183.75 8.25604 166.27 12.2451C165.218 12.4851 164.029 12.6417 163 12.4117C145.185 8.40599 127.381 4.33694 109.58 0.264515L109.499 0.246043C107.556 -0.199856 107.434 -0.227707 107.385 1.80082C107.316 4.57347 107.291 7.34698 107.266 10.1205C107.243 12.7274 107.22 15.3343 107.16 17.9405C107.13 19.2435 107.556 20.0467 108.594 20.8332C113.172 24.2961 117.738 27.7737 122.304 31.2514C129.826 36.9807 137.349 42.71 144.921 48.3735C147.156 50.0465 147.987 51.8327 147.742 54.5354C147.209 60.3888 146.724 66.2456 146.238 72.1023C145.78 77.6296 145.321 83.1569 144.823 88.681C144.049 97.2565 143.207 105.826 142.365 114.396C142.117 116.919 141.869 119.443 141.623 121.967C141.392 124.338 141.135 126.704 140.866 129.183C140.742 130.328 140.615 131.496 140.487 132.701C101.566 124.447 62.7878 116.221 23.9688 107.987L0.433883 102.994C0.41492 103.222 0.395958 103.416 0.379071 103.59C0.348201 103.906 0.324258 104.152 0.319926 104.397C0.290509 106.362 0.264543 108.326 0.238576 110.29C0.175774 115.037 0.112971 119.784 0.00155596 124.529C-0.0285871 125.746 0.37689 126.369 1.42242 126.986C22.1897 139.263 42.9521 151.548 63.7147 163.833C88.8388 178.698 113.963 193.564 139.096 208.417C140.239 209.093 140.544 209.827 140.551 211.06C140.657 231.469 140.8 251.878 140.943 272.287L140.976 276.975C140.978 277.146 140.975 277.32 140.973 277.494C140.964 278.047 140.956 278.605 141.083 279.127C141.541 281.011 141.988 282.898 142.434 284.786C143.684 290.068 144.934 295.353 146.435 300.562C148.339 307.171 150.852 313.6 154.95 319.245Z" fill="url(#paint0_linear_1054_42)"/>
<defs>
<linearGradient id="paint0_linear_1054_42" x1="221" y1="0" x2="-10" y2="326" gradientUnits="userSpaceOnUse">
<stop stop-color="#F4B832"/>
<stop offset="0.614196" stop-color="#F4B832" stop-opacity="0"/>
</linearGradient>
</defs>
</svg>
